<svg width="30" height="30" viewBox="0 0 30 30" fill="none" xmlns="http://www.w3.org/2000/svg">
<g clip-path="url(#clip0_138_177)">
<path d="M15 30C23.2843 30 30 23.2843 30 15C30 6.71573 23.2843 0 15 0C6.71573 0 0 6.71573 0 15C0 23.2843 6.71573 30 15 30Z" fill="black"/>
<path d="M8.06885 13.2412C8.48264 13.4998 8.89643 13.7067 9.2585 13.9136C11.1206 14.9481 12.9826 15.9826 14.793 17.0171C14.9999 17.1205 15.2068 17.1205 15.4137 17.0171C17.5861 15.7757 19.7585 14.586 21.9826 13.3447C22.0344 13.2929 22.0861 13.2929 22.1895 13.2412C22.2413 13.2929 22.1895 13.3447 22.1895 13.3447C22.1895 15.3619 22.1895 17.3791 22.1895 19.4481C22.1895 20.1722 21.724 20.6378 20.9999 20.6378C17.0688 20.6378 13.1895 20.6378 9.2585 20.6378C8.58609 20.6378 8.06885 20.1722 8.06885 19.4998C8.06885 17.4826 8.06885 15.3619 8.06885 13.2412Z" fill="#FEFEFE"/>
<path d="M15.1549 10.3447C17.1204 10.3447 19.0859 10.3447 21.0514 10.3447C21.5687 10.3447 22.0342 10.6551 22.1894 11.1206C22.2411 11.224 22.1894 11.2758 22.0859 11.3275C19.8101 12.5689 17.5342 13.862 15.2583 15.1033C15.1549 15.1551 15.1032 15.1551 14.9997 15.1033C12.7238 13.8102 10.448 12.5689 8.17213 11.3275C8.06868 11.2758 8.06868 11.224 8.1204 11.1206C8.27557 10.6551 8.68937 10.3447 9.20661 10.3447C10.3445 10.3447 11.4825 10.3447 12.6721 10.3447C13.4997 10.3447 14.3273 10.3447 15.1549 10.3447Z" fill="#FEFEFE"/>
</g>
<defs>
<clipPath id="clip0_138_177">
<rect width="30" height="30" fill="white"/>
</clipPath>
</defs>
</svg>
