<svg width="30" height="30" viewBox="0 0 30 30" fill="none" xmlns="http://www.w3.org/2000/svg">
<path d="M15 30C23.2843 30 30 23.2843 30 15C30 6.71573 23.2843 0 15 0C6.71573 0 0 6.71573 0 15C0 23.2843 6.71573 30 15 30Z" fill="black"/>
<path d="M6.20703 11.0174C6.31048 10.8622 6.46565 10.7588 6.62082 10.7588C6.72427 10.7588 6.776 10.7588 6.87945 10.7588C7.60358 10.7588 8.32772 10.7588 9.05186 10.7588C9.46565 10.7588 9.67255 10.9139 9.82772 11.276C10.1898 12.207 10.6553 13.0863 11.1725 13.9139C11.3794 14.276 11.5863 14.6381 11.9484 14.8967C12.0001 14.9484 12.1036 15.0001 12.207 15.0519C12.4139 15.1553 12.5691 15.1036 12.7243 14.8967C12.8794 14.5863 12.8794 14.276 12.9312 13.9657C13.0346 13.2415 12.9829 12.5174 12.8277 11.7932C12.7243 11.3794 12.4657 11.1725 12.1036 11.0691C12.0519 11.0691 11.9484 11.0691 11.8967 11.0174C11.8967 10.9139 11.9484 10.8622 12.0001 10.8105C12.1553 10.6036 12.4139 10.5001 12.6725 10.4484C13.6553 10.2932 14.5863 10.2932 15.5691 10.4484C16.0346 10.5001 16.1898 10.707 16.2415 11.2243C16.2932 11.6898 16.2415 12.1036 16.2415 12.5691C16.2415 13.1381 16.1898 13.707 16.2415 14.3277C16.2415 14.4829 16.2932 14.6898 16.345 14.845C16.4484 15.1036 16.707 15.2588 17.0174 15.0001C17.4829 14.6381 17.7932 14.1208 18.1036 13.6553C18.5691 12.9312 18.9312 12.1553 19.2932 11.3277C19.4484 10.9139 19.5519 10.8622 20.0174 10.8622C20.8967 10.8622 21.8277 10.8622 22.707 10.8105C22.8622 10.8105 23.0174 10.8105 23.1208 10.8622C23.3277 10.9657 23.4312 11.0691 23.3794 11.3277C23.3277 11.7415 23.1208 12.1036 22.9139 12.4139C22.3967 13.2932 21.7243 14.0691 21.1553 14.8967C21.0001 15.1036 20.8967 15.2588 20.7415 15.4657C20.5863 15.776 20.5863 16.0863 20.845 16.345C21.0519 16.6036 21.3105 16.8105 21.5174 17.0174C22.1381 17.5863 22.7588 18.207 23.2243 18.9312C23.276 19.0346 23.3277 19.1381 23.3794 19.2932C23.4829 19.707 23.276 19.9657 22.8622 20.0174C22.6553 20.0174 22.4484 20.0174 22.2415 20.0691C21.5691 20.0691 20.8967 20.0691 20.2243 20.1208C19.8105 20.1208 19.4484 19.9657 19.1381 19.707C18.776 19.4484 18.4657 19.0863 18.207 18.7243C18.0001 18.4657 17.7932 18.207 17.5346 18.0001C17.4829 17.9484 17.3794 17.8967 17.276 17.845C17.1208 17.7415 16.9139 17.7932 16.7588 17.8967C16.4484 18.1553 16.3967 18.5174 16.345 18.9312C16.345 19.0863 16.345 19.2932 16.2932 19.4484C16.2932 19.7588 16.0863 19.9657 15.776 19.9657C14.3277 20.0691 12.9312 19.9139 11.6381 19.0346C10.8105 18.4657 10.1381 17.7415 9.51738 16.9657C8.22427 15.2588 7.24151 13.345 6.3622 11.3794C6.3622 11.3277 6.3622 11.276 6.31048 11.2243C6.20703 11.1725 6.20703 11.1208 6.20703 11.0174Z" fill="white"/>
</svg>
