<svg width="30" height="30" viewBox="0 0 30 30" fill="none" xmlns="http://www.w3.org/2000/svg">
<path d="M29.8215 13.3631C29.6981 11.7573 29.2493 10.23 28.5873 8.7701C27.4317 6.24336 25.7264 4.18828 23.4488 2.60486C21.6537 1.35834 19.679 0.53855 17.5249 0.156732C17.0312 0.0668923 16.5264 0.0668919 16.0327 0.0107422H15.9205C15.8756 0.055662 15.8195 0.0444324 15.7634 0.0444324H15.7522H15.5951C15.5839 0.0444324 15.5839 0.0444324 15.5727 0.0444324H15.5503C15.5166 0.0444324 15.4829 0.044432 15.4493 0.0107422H14.4059C14.3722 0.044432 14.3385 0.0444324 14.3049 0.0444324H14.2824C14.2712 0.0444324 14.2712 0.0444324 14.26 0.0444324H14.1029C14.0468 0.0332024 13.9795 0.0668919 13.9346 0.0107422H13.7664C13.7439 0.0332021 13.7215 0.0444324 13.6878 0.0444324C12.7566 0.0444324 11.859 0.224111 10.9615 0.47117C8.01074 1.30219 5.53123 2.87438 3.53416 5.19898C1.72782 7.31021 0.605865 9.73588 0.134645 12.476C0.0673283 12.8803 0.0785475 13.307 0.0112305 13.7113V13.9471C0.044889 13.9808 0.0448893 14.0257 0.0448893 14.0594C0.0448893 14.0706 0.0448893 14.0706 0.0448893 14.0819V14.1942C0.0336698 14.2615 0.067328 14.3402 0.0112305 14.4075V15.3396C0.044889 15.3733 0.0448893 15.4182 0.0448893 15.4519V15.4631V15.7776V15.7888C0.0448893 15.8 0.0448893 15.8 0.0448893 15.8113C0.0448893 15.845 0.044889 15.8787 0.0112305 15.9123V16.1482C0.100987 16.5525 0.0673283 16.9792 0.134645 17.3835C0.504889 19.5284 1.27904 21.5161 2.5244 23.3129C2.71513 23.5824 2.73757 23.8182 2.6366 24.1214C2.10928 25.7049 1.5483 27.2771 1.03221 28.8717C0.998547 28.984 0.920011 29.1075 1.00977 29.2086C1.09952 29.3097 1.23416 29.2311 1.33513 29.1974C1.87367 29.0177 2.42343 28.8492 2.97318 28.6808C4.10635 28.3214 5.25074 27.9508 6.38391 27.5915C6.63074 27.5129 6.82147 27.5466 7.03464 27.6813C8.80733 28.7931 10.7259 29.5006 12.7903 29.7813C13.8449 29.9273 14.9107 29.9049 15.9878 29.8712C17.8166 29.815 19.5332 29.3209 21.1825 28.5685C22.9327 27.7712 24.4585 26.6594 25.7937 25.2669C27.0166 23.9754 27.9703 22.5156 28.6995 20.8984C29.7542 18.484 30.0122 15.9573 29.8215 13.3631ZM21.0254 23.0883C20.6327 23.223 20.2176 23.3017 19.881 23.2792C19.1068 23.2792 18.4561 23.122 17.8054 22.9198C15.8868 22.3359 14.0581 21.561 12.4649 20.3033C10.9727 19.1466 9.69367 17.7765 8.58294 16.2717C7.93221 15.3845 7.28147 14.4861 6.84391 13.4642C6.22684 12.0492 6.04733 10.6118 6.59708 9.14069C6.87757 8.37705 7.32635 7.71449 7.9883 7.24283C8.67269 6.74871 9.45806 6.77117 10.2434 6.93962C10.4229 6.97331 10.5239 7.1193 10.5912 7.26529C11.1746 8.50058 11.6571 9.7808 12.1844 11.0385C12.3527 11.4541 12.1171 11.7685 11.8815 12.0717C11.6122 12.4086 11.3205 12.7118 11.04 13.0375C10.681 13.453 10.6585 13.6327 10.9503 14.1043C12.319 16.3503 14.1478 18.0573 16.5937 19.068C17.2781 19.3487 17.6034 19.2701 18.0522 18.6861C18.3551 18.3043 18.6356 17.9113 18.9273 17.5182C19.3088 17.0129 19.6342 16.9118 20.2064 17.1701C21.3283 17.653 22.4278 18.2257 23.5273 18.7648C23.8078 18.8995 23.92 19.1016 23.9088 19.4161C23.8415 21.3589 23.1122 22.3583 21.0254 23.0883Z" fill="#001013"/>
<path d="M0.0560976 14.1721C0.0560976 14.2507 0.0897561 14.3406 0 14.4079C0 14.3293 0 14.2507 0 14.1721C0.022439 14.1497 0.044878 14.1497 0.0560976 14.1721Z" fill="#001013"/>
<path d="M14.1029 0.0556621C14.0468 0.0556621 13.9682 0.111812 13.9346 0.0107422C13.9907 0.0107422 14.0468 0.0107422 14.1141 0.0107422C14.1365 0.0219721 14.1365 0.0332024 14.1365 0.0444324C14.1141 0.0444324 14.1029 0.0556621 14.1029 0.0556621Z" fill="#001013"/>
<path d="M14.103 0.0556621C14.103 0.0444322 14.103 0.0219721 14.103 0.0107422C14.1591 0.0107422 14.2152 0.0107422 14.2825 0.0107422C14.305 0.0219721 14.305 0.0332024 14.305 0.0444324C14.2938 0.0556623 14.2938 0.0556621 14.2825 0.0556621C14.2152 0.0556621 14.1591 0.0556621 14.103 0.0556621Z" fill="#001013"/>
<path d="M15.741 0.0561497C15.6849 0.0561497 15.6176 0.0561497 15.5615 0.0561497C15.5391 0.0449198 15.5391 0.0336899 15.5391 0.02246C15.5503 0.01123 15.5503 0 15.5615 0C15.6176 0 15.6737 0 15.741 0C15.7635 0.0112299 15.7635 0.0224598 15.7635 0.0336898C15.7522 0.0449197 15.741 0.0561497 15.741 0.0561497Z" fill="#001013"/>
<path d="M15.7412 0.0556621C15.7412 0.0444322 15.7412 0.0219721 15.7412 0.0107422C15.7973 0.0107422 15.8534 0.0107422 15.9207 0.0107422C15.8758 0.100582 15.7973 0.0444322 15.7412 0.0556621Z" fill="#001013"/>
<path d="M14.271 0.0556621C14.271 0.0444322 14.271 0.0219721 14.271 0.0107422C14.3047 0.0107422 14.3495 0.0107422 14.3832 0.0107422C14.372 0.055662 14.3271 0.0668921 14.271 0.0556621Z" fill="#001013"/>
<path d="M15.5614 0.0107422C15.5614 0.0219721 15.5614 0.0444322 15.5614 0.0556621C15.5165 0.0668921 15.4716 0.055662 15.438 0.0107422C15.4829 0.0107422 15.5165 0.0107422 15.5614 0.0107422Z" fill="#001013"/>
<path d="M0.0112305 13.9365C0.0785475 13.9478 0.067328 14.0039 0.067328 14.0488C0.0561085 14.0825 0.0336695 14.0825 0.0112305 14.0488C0.0112305 14.0151 0.0112305 13.9814 0.0112305 13.9365Z" fill="#001013"/>
<path d="M0.0112305 14.0596C0.0336695 14.0596 0.044889 14.0596 0.067328 14.0596C0.067328 14.1045 0.067328 14.1382 0.067328 14.1831C0.044889 14.1831 0.0336695 14.1831 0.0112305 14.1831C0.0112305 14.1382 0.0112305 14.0933 0.0112305 14.0596Z" fill="#001013"/>
<path d="M0.0112305 15.3398C0.067328 15.3623 0.0673282 15.4072 0.0561087 15.4634C0.0336697 15.4858 0.02245 15.4858 0.0112305 15.4634C0.0112305 15.4185 0.0112305 15.3848 0.0112305 15.3398Z" fill="#001013"/>
<path d="M0.0112305 15.4521C0.0226617 15.4521 0.0455242 15.4521 0.0569554 15.4521C0.0569554 15.4858 0.0569554 15.5308 0.0569554 15.5644C0.034093 15.5869 0.0226617 15.5869 0.0112305 15.5644C0.0112305 15.5308 0.0112305 15.4971 0.0112305 15.4521Z" fill="#001013"/>
<path d="M0.0112305 15.5762C0.0226617 15.5762 0.0455242 15.5762 0.0569554 15.5762C0.0569554 15.6099 0.0569554 15.6548 0.0569554 15.6885C0.034093 15.7109 0.0226617 15.7109 0.0112305 15.6885C0.0112305 15.6548 0.0112305 15.6099 0.0112305 15.5762Z" fill="#001013"/>
<path d="M0.0112305 15.6885C0.0226617 15.6885 0.0455242 15.6885 0.0569554 15.6885C0.0569554 15.7222 0.0569554 15.7671 0.0569554 15.8008C0.034093 15.8232 0.0226617 15.8232 0.0112305 15.8008C0.0112305 15.7671 0.0112305 15.7334 0.0112305 15.6885Z" fill="#001013"/>
<path d="M0.0112305 15.8115C0.02245 15.8115 0.0448892 15.8115 0.0561087 15.8115C0.0673282 15.8564 0.0785475 15.9126 0.0112305 15.9238C0.0112305 15.8901 0.0112305 15.8452 0.0112305 15.8115Z" fill="#001013"/>
</svg>
