<svg width="30" height="30" viewBox="0 0 30 30" fill="none" xmlns="http://www.w3.org/2000/svg">
<path d="M15 30C23.2843 30 30 23.2843 30 15C30 6.71573 23.2843 0 15 0C6.71573 0 0 6.71573 0 15C0 23.2843 6.71573 30 15 30Z" fill="#001013"/>
<path d="M8.63818 19.3965C8.63818 16.4482 8.63818 13.4999 8.63818 10.5516C8.68991 10.2413 8.94853 10.0344 9.3106 10.0344C9.67267 10.0344 9.98301 10.0344 10.3451 10.0344C10.5003 10.0344 10.5003 10.0344 10.5003 9.87921C10.5003 9.72404 10.5003 9.56886 10.5003 9.41369C10.5003 9.05162 10.7589 8.84473 11.1209 8.84473C11.5865 8.84473 11.8451 9.05162 11.8451 9.51714C11.8451 9.67231 11.8451 9.77576 11.8451 9.93093C11.8451 10.0344 11.8968 10.0344 11.9485 10.0344C12.0003 10.0344 12.0003 10.0344 12.052 10.0344C13.9658 10.0344 15.8796 10.0344 17.8451 10.0344C17.8968 10.0344 17.8968 10.0344 17.9485 10.0344C18.052 10.0344 18.1037 9.98266 18.1037 9.93093C18.1037 9.77576 18.1037 9.62059 18.1037 9.46542C18.1037 9.25852 18.2071 9.10335 18.3623 8.94817C18.5175 8.84473 18.6727 8.84473 18.8796 8.84473C19.1899 8.84473 19.3968 9.10335 19.4485 9.41369C19.4485 9.56886 19.4485 9.77576 19.4485 9.93093C19.4485 10.0344 19.5003 10.0861 19.552 10.0861C19.7071 10.0861 19.8106 10.0861 19.9658 10.0861C20.2244 10.0861 20.4313 10.1896 20.5865 10.4482C20.6382 10.5516 20.6899 10.6551 20.6899 10.7585C20.6899 11.6896 20.6899 12.6206 20.6899 13.5516V13.6033C20.6899 13.7068 20.6382 13.7068 20.5347 13.6551C20.483 13.6033 20.4313 13.5516 20.3796 13.5516C19.6554 13.0344 18.8278 12.724 17.9485 12.6723C16.9658 12.5689 15.983 12.7758 15.1037 13.293C14.7416 13.4999 14.3796 13.7585 14.0692 14.0689C13.2416 14.8965 12.7244 15.8792 12.5692 17.0171C12.4658 18.0516 12.6727 18.9827 13.1382 19.862C13.1899 20.0171 13.1899 20.0689 13.0347 20.0689C11.8451 20.0689 10.6037 20.0689 9.41405 20.0689C9.20715 20.0689 9.05198 19.9654 8.8968 19.862C8.68991 19.6033 8.68991 19.4999 8.63818 19.3965Z" fill="white"/>
<path d="M21.1035 16.6553C20.9484 15.8794 20.5346 15.207 19.9139 14.638C18.9311 13.8104 17.7932 13.5001 16.5518 13.8104C15.0001 14.2242 13.8622 15.5173 13.707 17.0691C13.6036 18.1035 13.9139 19.0346 14.5863 19.8104C15.207 20.5346 15.9829 20.9484 16.9139 21.1035C16.9656 21.1035 17.0173 21.1035 17.0691 21.1553H17.1725H17.2242H17.276C17.276 21.1553 17.276 21.1553 17.3277 21.1553H17.5863C17.5863 21.1553 17.5863 21.1553 17.638 21.1553H17.6898H17.7932C17.9484 21.1035 18.1036 21.1035 18.207 21.0518C19.138 20.8449 19.9139 20.3277 20.4829 19.5518C21.1553 18.7242 21.3622 17.7415 21.1035 16.6553ZM18.776 18.0518C18.3104 18.0518 17.8449 18.0518 17.3794 18.0518C17.0691 18.0518 16.8622 17.7932 16.8104 17.4828C16.8104 17.1725 16.8104 16.8622 16.8104 16.5001C16.8104 16.1897 16.8104 15.8277 16.8104 15.5173C16.8104 15.2587 16.9656 15.0518 17.2242 15.0001C17.4829 14.8966 17.7932 15.0001 17.9484 15.207C18.0518 15.3104 18.0518 15.4656 18.0518 15.6208C18.0518 15.9828 18.0518 16.3449 18.0518 16.707C18.0518 16.8104 18.0518 16.8622 18.207 16.8622C18.3622 16.8622 18.5691 16.8622 18.7242 16.8622C19.0863 16.8622 19.2932 17.1208 19.2932 17.4311C19.3449 17.7932 19.138 18.0518 18.776 18.0518Z" fill="white"/>
</svg>
