<svg width="30" height="30" viewBox="0 0 30 30" fill="none" xmlns="http://www.w3.org/2000/svg">
<path d="M15 30C23.2843 30 30 23.2843 30 15C30 6.71573 23.2843 0 15 0C6.71573 0 0 6.71573 0 15C0 23.2843 6.71573 30 15 30Z" fill="white"/>
<path d="M8 11.6079C8 11.1385 8.15694 10.6691 8.57545 10.304C8.88934 9.99101 9.25553 9.6259 9.56942 9.31295C9.62173 9.26079 9.67404 9.20863 9.72636 9.15647C10.0402 8.94784 10.3541 8.94784 10.6157 9.15647C11.0342 9.52158 11.4004 9.93885 11.8189 10.3561C12.0805 10.6169 12.3421 10.8777 12.5513 11.1385C12.8129 11.4514 12.8129 11.7644 12.5513 12.0773C12.1851 12.4424 11.8189 12.8076 11.4527 13.1727C11.1388 13.4856 11.0865 13.6942 11.2958 14.1115C11.7143 14.9982 12.2897 15.7284 12.9175 16.4065C13.5976 17.1888 14.3823 17.8147 15.3239 18.3885C15.5332 18.4928 15.7425 18.5971 15.9517 18.7014C16.2656 18.8579 16.4748 18.8058 16.7364 18.5971C17.1026 18.232 17.4165 17.9191 17.7827 17.554C17.835 17.5018 17.9396 17.3975 17.9919 17.3453C18.2535 17.1367 18.6197 17.1367 18.829 17.3975C19.5091 18.0234 20.1368 18.7014 20.7646 19.3273C21.0785 19.6403 21.0785 20.0054 20.7646 20.3183C20.3461 20.7356 19.9799 21.1529 19.5091 21.5701C19.0905 21.9352 18.5674 22.0396 18.0443 21.9874C17.1549 21.8831 16.3179 21.5701 15.5332 21.205C13.9115 20.4227 12.499 19.3795 11.2958 18.0755C10.0402 16.7194 9.04628 15.259 8.3662 13.5378C8.15694 12.9119 8 12.2338 8 11.6079Z" fill="#1E1E1E"/>
</svg>
