<svg width="30" height="30" viewBox="0 0 30 30" fill="none" xmlns="http://www.w3.org/2000/svg">
<g clip-path="url(#clip0_138_156)">
<path d="M15 30C23.2843 30 30 23.2843 30 15C30 6.71573 23.2843 0 15 0C6.71573 0 0 6.71573 0 15C0 23.2843 6.71573 30 15 30Z" fill="#001013"/>
<path d="M14.6381 6.72461C14.6381 6.77633 14.5864 6.77633 14.5864 6.72461C14.5864 6.72461 14.5864 6.72461 14.6381 6.72461Z" fill="white"/>
<path d="M15.4658 6.72461C15.4658 6.77633 15.4141 6.77633 15.4141 6.72461C15.4141 6.72461 15.4141 6.72461 15.4658 6.72461Z" fill="white"/>
<path d="M20.1207 12.1554C19.7069 9.41403 17.1207 7.44851 14.3276 7.81058C11.7414 8.17265 9.82764 10.3451 9.82764 13.1382C9.82764 13.3968 9.87936 13.914 10.0345 14.3795C10.3449 15.5692 10.8621 16.6554 11.4828 17.6899C12.5173 19.5002 13.7587 21.1037 14.9483 22.8106C15.0001 22.914 15.0518 22.8623 15.1035 22.8106C16.0345 21.4658 17.069 20.1209 17.9483 18.7244C18.6725 17.6382 19.2932 16.5002 19.7587 15.2589C20.069 14.2761 20.2759 13.2416 20.1207 12.1554ZM15.0001 16.0347C13.2932 16.0347 11.8966 14.6382 11.8966 12.9313C11.8966 11.2244 13.2932 9.82782 15.0001 9.82782C16.7069 9.82782 18.1035 11.2244 18.1035 12.9313C18.1035 14.6382 16.7069 16.0347 15.0001 16.0347Z" fill="white"/>
</g>
<defs>
<clipPath id="clip0_138_156">
<rect width="30" height="30" fill="white"/>
</clipPath>
</defs>
</svg>
