<svg width="30" height="30" viewBox="0 0 30 30" fill="none" xmlns="http://www.w3.org/2000/svg">
<path d="M15 30C23.2843 30 30 23.2843 30 15C30 6.71573 23.2843 0 15 0C6.71573 0 0 6.71573 0 15C0 23.2843 6.71573 30 15 30Z" fill="black"/>
<path d="M19.4999 9.56878C19.4999 9.56878 20.793 9.05154 20.6896 10.2929C20.6378 10.8102 20.3275 12.5688 20.0689 14.4826L19.1896 20.1205C19.1896 20.1205 19.1378 20.9481 18.4654 21.1033C17.8447 21.2584 16.862 20.586 16.6551 20.4309C16.4999 20.3274 13.9654 18.724 13.0861 17.8964C12.8275 17.6895 12.5689 17.224 13.1378 16.7584L16.9137 13.1377C17.3275 12.724 17.793 11.6895 15.9827 12.9309L10.9654 16.3446C10.9654 16.3446 10.3965 16.7067 9.31025 16.3964L6.98267 15.6722C6.98267 15.6722 6.10336 15.155 7.60336 14.586C11.1723 12.9309 15.5689 11.224 19.4999 9.56878Z" fill="white"/>
</svg>
